<mxfile host="app.diagrams.net" modified="2022-10-09T12:31:50.976Z" agent="5.0 (Macintosh; Intel Mac OS X 10_15_7) AppleWebKit/605.1.15 (KHTML, like Gecko) Version/15.5 Safari/605.1.15" etag="DQo3MxDNl6bnZfLw3ed-" version="20.4.0" type="github">
  <diagram id="o7p4OV8jSi1Fe-7ckuXd" name="第 1 页">
    <mxGraphModel dx="779" dy="659" grid="1" gridSize="10" guides="1" tooltips="1" connect="1" arrows="1" fold="1" page="1" pageScale="1" pageWidth="827" pageHeight="1169" math="0" shadow="0">
      <root>
        <mxCell id="0" />
        <mxCell id="1" parent="0" />
        <mxCell id="8KS33HC-CKG4td0t2KCA-46" value="" style="group" vertex="1" connectable="0" parent="1">
          <mxGeometry width="480" height="310" as="geometry" />
        </mxCell>
        <mxCell id="8KS33HC-CKG4td0t2KCA-21" value="" style="shape=actor;whiteSpace=wrap;html=1;" vertex="1" parent="8KS33HC-CKG4td0t2KCA-46">
          <mxGeometry x="171.63590163934424" y="23.587391304347825" width="31.475409836065577" height="40.43478260869565" as="geometry" />
        </mxCell>
        <mxCell id="8KS33HC-CKG4td0t2KCA-22" value="Analyst" style="text;html=1;align=center;verticalAlign=middle;resizable=0;points=[];autosize=1;strokeColor=none;fillColor=none;" vertex="1" parent="8KS33HC-CKG4td0t2KCA-46">
          <mxGeometry x="157.37704918032787" y="64.02173913043478" width="60" height="30" as="geometry" />
        </mxCell>
        <mxCell id="8KS33HC-CKG4td0t2KCA-24" value="" style="shape=actor;whiteSpace=wrap;html=1;" vertex="1" parent="8KS33HC-CKG4td0t2KCA-46">
          <mxGeometry x="377.7049180327869" y="20.22" width="31.475409836065577" height="40.43478260869565" as="geometry" />
        </mxCell>
        <mxCell id="8KS33HC-CKG4td0t2KCA-25" value="" style="shape=actor;whiteSpace=wrap;html=1;" vertex="1" parent="8KS33HC-CKG4td0t2KCA-46">
          <mxGeometry x="291.1475409836066" y="20.217391304347824" width="31.475409836065577" height="40.43478260869565" as="geometry" />
        </mxCell>
        <mxCell id="8KS33HC-CKG4td0t2KCA-26" value="" style="shape=actor;whiteSpace=wrap;html=1;" vertex="1" parent="8KS33HC-CKG4td0t2KCA-46">
          <mxGeometry x="31.475409836065577" y="33.69565217391305" width="31.475409836065577" height="40.43478260869565" as="geometry" />
        </mxCell>
        <mxCell id="8KS33HC-CKG4td0t2KCA-27" value="Domain expert" style="text;html=1;align=center;verticalAlign=middle;resizable=0;points=[];autosize=1;strokeColor=none;fillColor=none;" vertex="1" parent="8KS33HC-CKG4td0t2KCA-46">
          <mxGeometry y="77.5" width="100" height="30" as="geometry" />
        </mxCell>
        <mxCell id="8KS33HC-CKG4td0t2KCA-28" value="Developer" style="text;html=1;align=center;verticalAlign=middle;resizable=0;points=[];autosize=1;strokeColor=none;fillColor=none;" vertex="1" parent="8KS33HC-CKG4td0t2KCA-46">
          <mxGeometry x="275.40983606557376" y="64.02173913043478" width="80" height="30" as="geometry" />
        </mxCell>
        <mxCell id="8KS33HC-CKG4td0t2KCA-29" value="Developer" style="text;html=1;align=center;verticalAlign=middle;resizable=0;points=[];autosize=1;strokeColor=none;fillColor=none;" vertex="1" parent="8KS33HC-CKG4td0t2KCA-46">
          <mxGeometry x="361.96721311475414" y="64.02434782608697" width="80" height="30" as="geometry" />
        </mxCell>
        <mxCell id="8KS33HC-CKG4td0t2KCA-33" value="" style="endArrow=classic;html=1;rounded=0;" edge="1" parent="8KS33HC-CKG4td0t2KCA-46">
          <mxGeometry width="50" height="50" relative="1" as="geometry">
            <mxPoint x="47.21311475409836" y="104.11956521739131" as="sourcePoint" />
            <mxPoint x="78.68852459016394" y="131.07608695652172" as="targetPoint" />
          </mxGeometry>
        </mxCell>
        <mxCell id="8KS33HC-CKG4td0t2KCA-34" value="" style="endArrow=classic;html=1;rounded=0;" edge="1" parent="8KS33HC-CKG4td0t2KCA-46">
          <mxGeometry width="50" height="50" relative="1" as="geometry">
            <mxPoint x="180.98360655737707" y="87.60869565217392" as="sourcePoint" />
            <mxPoint x="165.24590163934425" y="128.04347826086956" as="targetPoint" />
          </mxGeometry>
        </mxCell>
        <mxCell id="8KS33HC-CKG4td0t2KCA-35" value="" style="endArrow=classic;html=1;rounded=0;" edge="1" parent="8KS33HC-CKG4td0t2KCA-46">
          <mxGeometry width="50" height="50" relative="1" as="geometry">
            <mxPoint x="306.88524590163934" y="94.34782608695652" as="sourcePoint" />
            <mxPoint x="283.2786885245901" y="124.67391304347825" as="targetPoint" />
          </mxGeometry>
        </mxCell>
        <mxCell id="8KS33HC-CKG4td0t2KCA-36" value="" style="endArrow=classic;html=1;rounded=0;" edge="1" parent="8KS33HC-CKG4td0t2KCA-46">
          <mxGeometry width="50" height="50" relative="1" as="geometry">
            <mxPoint x="390" y="100" as="sourcePoint" />
            <mxPoint x="354.0983606557377" y="134.7826086956522" as="targetPoint" />
          </mxGeometry>
        </mxCell>
        <mxCell id="8KS33HC-CKG4td0t2KCA-37" value="Ubiquitions&lt;br&gt;Language" style="ellipse;shape=cloud;whiteSpace=wrap;html=1;" vertex="1" parent="8KS33HC-CKG4td0t2KCA-46">
          <mxGeometry x="31.475409836065577" y="128.04347826086956" width="314.75409836065575" height="94.34782608695652" as="geometry" />
        </mxCell>
        <mxCell id="8KS33HC-CKG4td0t2KCA-38" value="" style="endArrow=classic;startArrow=classic;html=1;rounded=0;" edge="1" parent="8KS33HC-CKG4td0t2KCA-46">
          <mxGeometry width="50" height="50" relative="1" as="geometry">
            <mxPoint x="361.96721311475414" y="192.06521739130437" as="sourcePoint" />
            <mxPoint x="401.3114754098361" y="188.69565217391303" as="targetPoint" />
          </mxGeometry>
        </mxCell>
        <mxCell id="8KS33HC-CKG4td0t2KCA-39" value="Whiteboard&lt;br&gt;discussions" style="text;html=1;align=center;verticalAlign=middle;resizable=0;points=[];autosize=1;strokeColor=none;fillColor=none;" vertex="1" parent="8KS33HC-CKG4td0t2KCA-46">
          <mxGeometry x="409.1803278688525" y="168.47826086956522" width="90" height="40" as="geometry" />
        </mxCell>
        <mxCell id="8KS33HC-CKG4td0t2KCA-40" value="Application&lt;br&gt;code" style="strokeWidth=2;html=1;shape=mxgraph.flowchart.document2;whiteSpace=wrap;size=0.25;" vertex="1" parent="8KS33HC-CKG4td0t2KCA-46">
          <mxGeometry x="39.34426229508197" y="242.6086956521739" width="78.68852459016394" height="40.43478260869565" as="geometry" />
        </mxCell>
        <mxCell id="8KS33HC-CKG4td0t2KCA-41" value="Test &amp;nbsp;Code" style="strokeWidth=2;html=1;shape=mxgraph.flowchart.document2;whiteSpace=wrap;size=0.25;" vertex="1" parent="8KS33HC-CKG4td0t2KCA-46">
          <mxGeometry x="165.24590163934425" y="256.0869565217391" width="78.68852459016394" height="40.43478260869565" as="geometry" />
        </mxCell>
        <mxCell id="8KS33HC-CKG4td0t2KCA-42" value="speech&lt;br&gt;and&lt;br&gt;Document" style="shape=note;whiteSpace=wrap;html=1;backgroundOutline=1;darkOpacity=0.05;" vertex="1" parent="8KS33HC-CKG4td0t2KCA-46">
          <mxGeometry x="306.89" y="242.61" width="113.11" height="67.39" as="geometry" />
        </mxCell>
        <mxCell id="8KS33HC-CKG4td0t2KCA-43" value="" style="endArrow=classic;startArrow=classic;html=1;rounded=0;" edge="1" parent="8KS33HC-CKG4td0t2KCA-46">
          <mxGeometry width="50" height="50" relative="1" as="geometry">
            <mxPoint x="62.95081967213115" y="242.6086956521739" as="sourcePoint" />
            <mxPoint x="102.29508196721312" y="208.91304347826087" as="targetPoint" />
          </mxGeometry>
        </mxCell>
        <mxCell id="8KS33HC-CKG4td0t2KCA-44" value="" style="endArrow=classic;startArrow=classic;html=1;rounded=0;" edge="1" parent="8KS33HC-CKG4td0t2KCA-46">
          <mxGeometry width="50" height="50" relative="1" as="geometry">
            <mxPoint x="188.85245901639345" y="256.0869565217391" as="sourcePoint" />
            <mxPoint x="228.19672131147541" y="222.3913043478261" as="targetPoint" />
          </mxGeometry>
        </mxCell>
        <mxCell id="8KS33HC-CKG4td0t2KCA-45" value="" style="endArrow=classic;startArrow=classic;html=1;rounded=0;" edge="1" parent="8KS33HC-CKG4td0t2KCA-46">
          <mxGeometry width="50" height="50" relative="1" as="geometry">
            <mxPoint x="346.2295081967213" y="242.6086956521739" as="sourcePoint" />
            <mxPoint x="322.6229508196721" y="208.91304347826087" as="targetPoint" />
          </mxGeometry>
        </mxCell>
      </root>
    </mxGraphModel>
  </diagram>
</mxfile>
